<svg width="61" height="29" viewBox="0 0 61 29" fill="none" xmlns="http://www.w3.org/2000/svg">
<rect width="61" height="29" fill="white"/>
<path d="M16.9922 4.9375V16.5391C16.9844 18.1484 16.4766 19.4648 15.4688 20.4883C14.4688 21.5117 13.1094 22.0859 11.3906 22.2109L10.793 22.2344C8.92578 22.2344 7.4375 21.7305 6.32812 20.7227C5.21875 19.7148 4.65625 18.3281 4.64062 16.5625V4.9375H6.86719V16.4922C6.86719 17.7266 7.20703 18.6875 7.88672 19.375C8.56641 20.0547 9.53516 20.3945 10.793 20.3945C12.0664 20.3945 13.0391 20.0547 13.7109 19.375C14.3906 18.6953 14.7305 17.7383 14.7305 16.5039V4.9375H16.9922ZM22.2539 9.32031L22.3242 10.9141C23.293 9.69531 24.5586 9.08594 26.1211 9.08594C28.8008 9.08594 30.1523 10.5977 30.1758 13.6211V22H28.0078V13.6094C28 12.6953 27.7891 12.0195 27.375 11.582C26.9688 11.1445 26.332 10.9258 25.4648 10.9258C24.7617 10.9258 24.1445 11.1133 23.6133 11.4883C23.082 11.8633 22.668 12.3555 22.3711 12.9648V22H20.2031V9.32031H22.2539ZM35.8008 22H33.6328V9.32031H35.8008V22ZM33.457 5.95703C33.457 5.60547 33.5625 5.30859 33.7734 5.06641C33.9922 4.82422 34.3125 4.70312 34.7344 4.70312C35.1562 4.70312 35.4766 4.82422 35.6953 5.06641C35.9141 5.30859 36.0234 5.60547 36.0234 5.95703C36.0234 6.30859 35.9141 6.60156 35.6953 6.83594C35.4766 7.07031 35.1562 7.1875 34.7344 7.1875C34.3125 7.1875 33.9922 7.07031 33.7734 6.83594C33.5625 6.60156 33.457 6.30859 33.457 5.95703ZM42.2227 6.25V9.32031H44.5898V10.9961H42.2227V18.8594C42.2227 19.3672 42.3281 19.75 42.5391 20.0078C42.75 20.2578 43.1094 20.3828 43.6172 20.3828C43.8672 20.3828 44.2109 20.3359 44.6484 20.2422V22C44.0781 22.1562 43.5234 22.2344 42.9844 22.2344C42.0156 22.2344 41.2852 21.9414 40.793 21.3555C40.3008 20.7695 40.0547 19.9375 40.0547 18.8594V10.9961H37.7461V9.32031H40.0547V6.25H42.2227ZM51.2812 18.8242L54.2344 9.32031H56.5547L51.457 23.957C50.668 26.0664 49.4141 27.1211 47.6953 27.1211L47.2852 27.0859L46.4766 26.9336V25.1758L47.0625 25.2227C47.7969 25.2227 48.3672 25.0742 48.7734 24.7773C49.1875 24.4805 49.5273 23.9375 49.793 23.1484L50.2734 21.8594L45.75 9.32031H48.1172L51.2812 18.8242Z" fill="black"/>
</svg>
