<svg width="48px" height="17px" viewBox="0 0 48 17" version="1.1" xmlns="http://www.w3.org/2000/svg" xmlns:xlink="http://www.w3.org/1999/xlink">
    <title>logo_tvos</title>
    <g id="Page-1" stroke="none" stroke-width="1" fill="none" fill-rule="evenodd">
        <g id="logo_tvos" transform="translate(-0.000000, 0.000000)" fill="#414042" fill-rule="nonzero">
            <path d="M26.8160931,0.110617241 C22.2644897,0.110617241 19.3987117,3.37212 19.3987117,8.54703724 C19.3987117,13.7233966 22.2630359,16.9733041 26.8160931,16.9733041 C31.3807455,16.9733041 34.2450697,13.7233966 34.2450697,8.54703724 C34.2450579,3.37210828 31.3676966,0.110617241 26.8160931,0.110617241 Z M26.8160931,15.5353386 C23.2385897,15.5353386 20.9845303,12.8290207 20.9845303,8.54847931 C20.9845303,4.25634276 23.2371359,1.55002483 26.8160931,1.55002483 C30.3950503,1.55002483 32.6607048,4.25634276 32.659251,8.54847931 C32.6592393,12.8290207 30.3935966,15.5353386 26.8160931,15.5353386 Z" id="Shape"></path>
            <path d="M5.64097517,16.7022303 C5.48296897,16.747169 4.84807172,16.7703593 4.53061724,16.7703593 C2.56066897,16.7703593 1.76776552,15.9325172 1.76776552,13.8147159 L1.76776552,6.18135241 L0.0123572414,6.18135241 L0.0123572414,4.93617862 L1.76776552,4.93617862 L1.76776552,1.99213034 L3.2622531,1.99213034 L3.2622531,4.93617862 L5.58444138,4.93617862 L5.58444138,6.18135241 L3.2622531,6.18135241 L3.2622531,13.7349917 C3.2622531,14.9584172 3.73770207,15.4672097 4.82486966,15.4672097 C4.98287586,15.4672097 5.54964414,15.4440193 5.64096345,15.4338662 L5.64096345,16.7022303 L5.64097517,16.7022303 Z" id="Path"></path>
            <polygon id="Path" points="13.0467497 16.7138255 11.4493476 16.7138255 7.06733379 4.93617862 8.65315241 4.93617862 12.2320979 15.1396138 12.2654414 15.1396138 15.8559938 4.93617862 17.4186103 4.93617862"></polygon>
            <path d="M41.8450897,16.9732924 C38.4255807,16.9732924 36.0236683,15.0816262 35.8540669,12.2738359 L37.4050883,12.2738359 C37.5746897,14.2336428 39.4214172,15.5686821 41.9798821,15.5686821 C44.4267331,15.5686821 46.1806876,14.232189 46.1806876,12.3970566 C46.1806876,10.8677717 45.1268634,9.96180069 42.7046566,9.35008207 L40.6781745,8.82969448 C37.6544021,8.05998138 36.3063138,6.78002207 36.3063138,4.62888897 C36.3063138,1.9907 38.6850359,0.110617241 41.9001579,0.110617241 C45.0819366,0.110617241 47.41572,1.99068828 47.5055855,4.58393862 L45.9545641,4.58393862 C45.8066993,2.7386531 44.1759538,1.51522759 41.8552193,1.51522759 C39.5895648,1.51522759 37.9138807,2.77199655 37.9138807,4.57234345 C37.9138807,5.97696552 38.9329193,6.80321241 41.3333897,7.41491931 L43.1004048,7.86863172 C46.3850979,8.69487862 47.7665297,9.95308966 47.7665297,12.2288972 C47.7679717,15.0932214 45.4573786,16.9732924 41.8450897,16.9732924 Z" id="Path"></path>
        </g>
    </g>
</svg>